# xmcd
#
# Track frame offsets: 
#        150
#        24598
#        44453
#        63468
#        84123
#        111923
#        133525
#        158648
#        176508
#        196558
#        219363
#        238703
#
# Disc length: 3521 seconds
#
# Revision: 0
# Processed by: cddbd v1.5.2PL0 Copyright (c) Steve Scherf et al.
# Submitted via: ExactAudioCopy v1.0b3
#
DISCID=940dbf0c
DTITLE=Tuan Vu - Nguoi Mang Thuong Nho
DYEAR=1991
DGENRE=
TTITLE0=Nguoi yeu co don
TTITLE1=Luu Hong - Hinh bong cu
TTITLE2=Sao em no vo tinh
TTITLE3=Thanh Tuyen - Neu doi khong co anh
TTITLE4=Ngay sau se ra sao
TTITLE5=Thanh pho sau lung
TTITLE6=Giao Linh - Tien nguoi di
TTITLE7=Hai Ly - Gui nguoi ngan dam
TTITLE8=Mua mua di qua
TTITLE9=Ngoc Lan - Chieu tan
TTITLE10=Yeu nguoi nhu the do
TTITLE11=Chuyen do khong em
EXTD=
EXTT0=
EXTT1=
EXTT2=
EXTT3=
EXTT4=
EXTT5=
EXTT6=
EXTT7=
EXTT8=
EXTT9=
EXTT10=
EXTT11=
PLAYORDER=
